<svg id="Calque_1" data-name="Calque 1" xmlns="http://www.w3.org/2000/svg" xmlns:xlink="http://www.w3.org/1999/xlink" viewBox="0 0 500 500"><defs><style>.cls-1,.cls-6,.cls-7,.cls-9{fill:none;}.cls-2{clip-path:url(#clip-path);}.cls-3{fill:#1e173c;}.cls-4{fill:#86bc25;}.cls-5{fill:#82bb26;}.cls-6{stroke:#86bc25;}.cls-6,.cls-7,.cls-9{stroke-miterlimit:10;stroke-width:7px;}.cls-7{stroke:#aa026d;}.cls-8{fill:#fff;}.cls-9{stroke:#a0a09f;}</style><clipPath id="clip-path"><path class="cls-1" d="M72.05.17A71.61,71.61,0,0,0,.44,71.77V427.93a71.61,71.61,0,0,0,71.61,71.6H427.83a71.6,71.6,0,0,0,71.6-71.6V71.77A71.44,71.44,0,0,0,474,17.06l-.06,0a10.75,10.75,0,0,1-2.07-1.69,71.24,71.24,0,0,0-44-15.17Z"/></clipPath></defs><title>Plan de travail 1</title><g class="cls-2"><path class="cls-3" d="M474.68,17.45l-.06,0a10.39,10.39,0,0,1-2.08-1.69A71.25,71.25,0,0,0,428.5.56H72.72A71.6,71.6,0,0,0,1.12,72.15V428.23a71.6,71.6,0,0,0,71.6,71.59H428.5a71.6,71.6,0,0,0,71.61-71.59V72.15a71.41,71.41,0,0,0-25.43-54.7"/><path class="cls-4" d="M115.29,251.88a26.74,26.74,0,0,1-10.16,8,30.13,30.13,0,0,1-12.72,2.82,33.93,33.93,0,0,1-11.77-2,28.13,28.13,0,0,1-9.59-5.8,27,27,0,0,1-6.42-9.06,31,31,0,0,1,0-23.65,27.18,27.18,0,0,1,6.42-9.07,28.29,28.29,0,0,1,9.59-5.8,33.93,33.93,0,0,1,11.77-2,26.6,26.6,0,0,1,10.55,2,22,22,0,0,1,8,5.8,26.44,26.44,0,0,1,5.08,9.07A36.86,36.86,0,0,1,117.85,234v5.3H79A13.37,13.37,0,0,0,83.38,247a12.25,12.25,0,0,0,8.25,2.87,12.51,12.51,0,0,0,7-1.86,18.89,18.89,0,0,0,5-4.78Zm-14.17-24.1a10,10,0,0,0-10.27-10.36,12.47,12.47,0,0,0-4.91.9,12.21,12.21,0,0,0-3.62,2.31A10.06,10.06,0,0,0,80,223.89a11,11,0,0,0-1,3.89Z"/><path class="cls-4" d="M172.74,196.54a13.43,13.43,0,0,0-6.18-4.3,22,22,0,0,0-7.39-1.39,19.34,19.34,0,0,0-4.2.48,16.14,16.14,0,0,0-4.08,1.52,8.85,8.85,0,0,0-3.12,2.72,7,7,0,0,0-1.2,4.12,6.86,6.86,0,0,0,2.88,5.94,27.28,27.28,0,0,0,7.26,3.51q4.38,1.46,9.43,2.9a39.09,39.09,0,0,1,9.42,4.12,22.52,22.52,0,0,1,7.26,7.15q2.88,4.49,2.88,12a27.9,27.9,0,0,1-2.64,12.47,25.18,25.18,0,0,1-7.14,8.84,30.12,30.12,0,0,1-10.44,5.21,45.56,45.56,0,0,1-12.55,1.7A45,45,0,0,1,137.57,261a38.25,38.25,0,0,1-13.2-8.23L137.69,238a19.41,19.41,0,0,0,7.26,6,20.61,20.61,0,0,0,9.06,2.12,20,20,0,0,0,4.62-.55,15.25,15.25,0,0,0,4.21-1.63,9.34,9.34,0,0,0,3-2.79,7.06,7.06,0,0,0,1.14-4A7.3,7.3,0,0,0,164,231a27.34,27.34,0,0,0-7.39-3.82c-3-1-6.16-2.1-9.6-3.15a42.74,42.74,0,0,1-9.6-4.23,23.25,23.25,0,0,1-7.38-7q-2.94-4.36-2.94-11.5a26,26,0,0,1,2.7-12.12,26.32,26.32,0,0,1,7.2-8.72,31.4,31.4,0,0,1,10.38-5.27,42.5,42.5,0,0,1,12.12-1.75,47.4,47.4,0,0,1,13.93,2.06,32.06,32.06,0,0,1,12.12,6.9Z"/><polygon class="cls-4" points="199.62 175.59 225.06 175.59 261.18 235.18 261.42 235.18 261.42 175.59 280.14 175.59 280.14 261.34 255.66 261.34 218.58 200.3 218.34 200.3 218.34 261.34 199.62 261.34 199.62 175.59"/><path class="cls-4" d="M351.44,196.6a19.15,19.15,0,0,0-5.24-3.93,22.24,22.24,0,0,0-9.3-1.82,23.19,23.19,0,0,0-17.58,7.81,27,27,0,0,0-5.16,8.78,33.78,33.78,0,0,0,0,22.11,27.69,27.69,0,0,0,5.1,8.72,23.12,23.12,0,0,0,7.62,5.75,21.9,21.9,0,0,0,9.42,2.06,21,21,0,0,0,10.2-2.42,20.41,20.41,0,0,0,7.32-6.79l15.6,11.75a32.5,32.5,0,0,1-13.68,11.26,41.88,41.88,0,0,1-17,3.64,51.89,51.89,0,0,1-18.36-3.15,42.06,42.06,0,0,1-14.52-9,40.92,40.92,0,0,1-9.54-14.24,52.56,52.56,0,0,1,0-37.3,41,41,0,0,1,9.54-14.23,42.06,42.06,0,0,1,14.52-9,51.89,51.89,0,0,1,18.36-3.15,44,44,0,0,1,7.5.67,40.56,40.56,0,0,1,7.68,2.11,34.41,34.41,0,0,1,7.26,3.88,31,31,0,0,1,4.4,3.59Z"/><polygon class="cls-4" points="380.34 175.59 437.34 175.59 437.34 193.03 399.06 193.03 399.06 210.47 434.46 210.47 434.46 227.91 399.06 227.91 399.06 261.34 380.34 261.34 380.34 175.59"/><path class="cls-5" d="M85.79,288a7.45,7.45,0,0,0-3.47-2.42,12.36,12.36,0,0,0-4.14-.78,10.82,10.82,0,0,0-2.36.27,9.13,9.13,0,0,0-2.29.85,5.09,5.09,0,0,0-1.75,1.53,3.92,3.92,0,0,0-.68,2.31,3.84,3.84,0,0,0,1.62,3.34,15.51,15.51,0,0,0,4.08,2c1.64.54,3.4,1.09,5.29,1.63A21.87,21.87,0,0,1,87.37,299a12.7,12.7,0,0,1,4.08,4,12.3,12.3,0,0,1,1.62,6.73,15.73,15.73,0,0,1-1.48,7,14.24,14.24,0,0,1-4,5,17.08,17.08,0,0,1-5.86,2.93,25.74,25.74,0,0,1-7,.95,25.41,25.41,0,0,1-8.63-1.43,21.54,21.54,0,0,1-7.41-4.62l7.48-8.3a11,11,0,0,0,4.08,3.37,11.54,11.54,0,0,0,5.08,1.19,11.75,11.75,0,0,0,2.6-.31,8.17,8.17,0,0,0,2.35-.92A5.18,5.18,0,0,0,81.92,313a4,4,0,0,0,.64-2.25,4.08,4.08,0,0,0-1.65-3.43,15.06,15.06,0,0,0-4.15-2.14c-1.66-.59-3.45-1.18-5.39-1.77A24.19,24.19,0,0,1,66,301.06a13,13,0,0,1-4.14-3.94,11.37,11.37,0,0,1-1.65-6.46A14.31,14.31,0,0,1,65.75,279,17.43,17.43,0,0,1,71.58,276a23.5,23.5,0,0,1,6.8-1,26.26,26.26,0,0,1,7.82,1.16,18,18,0,0,1,6.8,3.87Z"/><path class="cls-5" d="M98.32,300.31a27.42,27.42,0,0,1,1.92-10.47,23,23,0,0,1,5.36-8,23.72,23.72,0,0,1,8.15-5.06,30.88,30.88,0,0,1,20.61,0,23.67,23.67,0,0,1,8.16,5.06,23,23,0,0,1,5.35,8,29.53,29.53,0,0,1,0,21,22.93,22.93,0,0,1-5.35,8,23.54,23.54,0,0,1-8.16,5.07,30.88,30.88,0,0,1-20.61,0,23.59,23.59,0,0,1-8.15-5.07,23,23,0,0,1-5.36-8,27.44,27.44,0,0,1-1.92-10.48m10.92,0a17.78,17.78,0,0,0,1,6.23,14.18,14.18,0,0,0,3,4.89,13.66,13.66,0,0,0,4.68,3.23,16.59,16.59,0,0,0,12.19,0,13.8,13.8,0,0,0,4.69-3.23,14.16,14.16,0,0,0,3-4.89,18.86,18.86,0,0,0,0-12.41,14.06,14.06,0,0,0-3-4.93,13.66,13.66,0,0,0-4.69-3.23A16.59,16.59,0,0,0,118,286a13.53,13.53,0,0,0-4.68,3.23,14.08,14.08,0,0,0-3,4.93,17.74,17.74,0,0,0-1,6.18"/><polygon class="cls-5" points="157.34 276.24 167.85 276.24 167.85 314.59 187.32 314.59 187.32 324.38 157.34 324.38 157.34 276.24"/><path class="cls-5" d="M233.33,305.82a23.48,23.48,0,0,1-1.28,7.89,17,17,0,0,1-10.11,10.4,26.1,26.1,0,0,1-17.44,0,17,17,0,0,1-10.11-10.4,23.48,23.48,0,0,1-1.28-7.89V276.24h10.51v29.17a11.86,11.86,0,0,0,.71,4.15,10,10,0,0,0,2,3.3,9.07,9.07,0,0,0,3.07,2.17,9.4,9.4,0,0,0,3.87.79,9.25,9.25,0,0,0,6.88-3,10,10,0,0,0,2-3.3,11.86,11.86,0,0,0,.71-4.15V276.24h10.51Z"/><polygon class="cls-5" points="252.26 285.63 238.65 285.63 238.65 276.24 276.38 276.24 276.38 285.63 262.77 285.63 262.77 324.38 252.26 324.38 252.26 285.63"/><rect class="cls-5" x="281.57" y="276.24" width="10.51" height="48.14"/><path class="cls-5" d="M299.08,300.31A27.42,27.42,0,0,1,301,289.84a23,23,0,0,1,5.36-8,23.72,23.72,0,0,1,8.15-5.06,30.91,30.91,0,0,1,20.62,0,23.72,23.72,0,0,1,8.15,5.06,23,23,0,0,1,5.35,8,29.53,29.53,0,0,1,0,21,22.93,22.93,0,0,1-5.35,8,23.59,23.59,0,0,1-8.15,5.07,30.91,30.91,0,0,1-20.62,0,23.59,23.59,0,0,1-8.15-5.07,23,23,0,0,1-5.36-8,27.44,27.44,0,0,1-1.92-10.48m10.92,0a17.78,17.78,0,0,0,1,6.23,14.34,14.34,0,0,0,3,4.89,13.66,13.66,0,0,0,4.68,3.23,16.62,16.62,0,0,0,12.2,0,13.86,13.86,0,0,0,4.68-3.23,14.34,14.34,0,0,0,3-4.89,19,19,0,0,0,0-12.41,14.23,14.23,0,0,0-3-4.93,13.72,13.72,0,0,0-4.68-3.23,16.62,16.62,0,0,0-12.2,0A13.53,13.53,0,0,0,314,289.2a14.23,14.23,0,0,0-3,4.93,17.74,17.74,0,0,0-1,6.18"/><polygon class="cls-5" points="357.69 276.24 371.98 276.24 392.26 309.7 392.39 309.7 392.39 276.24 402.9 276.24 402.9 324.38 389.16 324.38 368.34 290.11 368.2 290.11 368.2 324.38 357.69 324.38 357.69 276.24"/><path class="cls-5" d="M436.18,288a7.45,7.45,0,0,0-3.47-2.42,12.36,12.36,0,0,0-4.14-.78,10.82,10.82,0,0,0-2.36.27,9.13,9.13,0,0,0-2.29.85,5.09,5.09,0,0,0-1.75,1.53,3.92,3.92,0,0,0-.68,2.31,3.84,3.84,0,0,0,1.62,3.34,15.51,15.51,0,0,0,4.08,2c1.64.54,3.4,1.09,5.28,1.63a21.77,21.77,0,0,1,5.29,2.31,12.7,12.7,0,0,1,4.08,4,12.3,12.3,0,0,1,1.62,6.73,15.6,15.6,0,0,1-1.49,7,14.11,14.11,0,0,1-4,5,17,17,0,0,1-5.87,2.93,25.69,25.69,0,0,1-7,.95,25.35,25.35,0,0,1-8.62-1.43,21.54,21.54,0,0,1-7.41-4.62l7.48-8.3a11,11,0,0,0,4.07,3.37,11.31,11.31,0,0,0,7.68.88,8.12,8.12,0,0,0,2.36-.92,5.18,5.18,0,0,0,1.69-1.56,4,4,0,0,0,.64-2.25,4.08,4.08,0,0,0-1.65-3.43,15.21,15.21,0,0,0-4.15-2.14q-2.49-.88-5.39-1.77a24,24,0,0,1-5.39-2.38,13,13,0,0,1-4.14-3.94,11.37,11.37,0,0,1-1.65-6.46,14.44,14.44,0,0,1,1.52-6.8,14.7,14.7,0,0,1,4-4.9A17.38,17.38,0,0,1,422,276a23.57,23.57,0,0,1,6.81-1,26.19,26.19,0,0,1,7.81,1.16,18,18,0,0,1,6.81,3.87Z"/><polyline class="cls-6" points="350.15 195.8 380.28 165.11 377.62 122.12 476.8 -1.17"/><polyline class="cls-7" points="446.61 130.6 444.31 90.57 507.85 10.26"/><path class="cls-8" d="M446.19,124.89a9.75,9.75,0,1,1-9.11,10.36,9.74,9.74,0,0,1,9.11-10.36m-3.58,10a4.08,4.08,0,1,0,3.81-4.33,4.07,4.07,0,0,0-3.81,4.33"/><polyline class="cls-9" points="350.06 54.49 392.75 50.35 461.27 -35.29"/><polyline class="cls-6" points="14.19 483.61 87.27 388.08 84.66 350.5 110.24 319.7"/><path class="cls-8" d="M344.5,45.78a9.75,9.75,0,1,1-9.11,10.36,9.75,9.75,0,0,1,9.11-10.36m-3.58,10a4.08,4.08,0,1,0,3.81-4.33,4.08,4.08,0,0,0-3.81,4.33"/><polyline class="cls-3" points="-3.26 454.4 27.76 414.04 25.51 388.63"/><polyline class="cls-7" points="-3.26 454.4 27.76 414.04 25.51 388.63"/><path class="cls-8" d="M26.24,393.51a9.75,9.75,0,1,1,8.42-10.93,9.74,9.74,0,0,1-8.42,10.93m2.94-10.22a4.08,4.08,0,1,0-3.53,4.57,4.08,4.08,0,0,0,3.53-4.57"/><polyline class="cls-9" points="42.28 499.53 73.39 459.24 98.54 454.93"/><path class="cls-8" d="M106.19,463.22a9.74,9.74,0,1,1,8.42-10.92,9.73,9.73,0,0,1-8.42,10.92M109.13,453a4.08,4.08,0,1,0-3.53,4.57,4.08,4.08,0,0,0,3.53-4.57"/></g></svg>